<?xml version="1.0" encoding="utf-8"?>
<!-- Generator: Adobe Illustrator 24.0.0, SVG Export Plug-In . SVG Version: 6.00 Build 0)  -->
<svg version="1.1" id="Camada_1" xmlns="http://www.w3.org/2000/svg" xmlns:xlink="http://www.w3.org/1999/xlink" x="0px" y="0px"
	 viewBox="0 0 623.22 214.22" style="enable-background:new 0 0 623.22 214.22;" xml:space="preserve">
<style type="text/css">
	.st0{fill-rule:evenodd;clip-rule:evenodd;fill:#235A2D;stroke:#235A2D;stroke-width:0.5669;stroke-miterlimit:22.9256;}
	.st1{fill-rule:evenodd;clip-rule:evenodd;fill:#00213E;stroke:#00213E;stroke-width:0.216;stroke-miterlimit:22.9256;}
	.st2{fill:#DFD53D;}
</style>
<g>
	<path class="st0" d="M602.87,89.35L470.27,12.79c-13.67-7.89-30.76,1.97-30.76,17.76v153.1c0,15.79,17.09,25.66,30.76,17.76
		l132.59-76.55C616.54,116.98,616.54,97.24,602.87,89.35z"/>
	<path class="st1" d="M36.88,83.47c-5.62,0-8.41,1.87-8.41,5.62c0,1.38,0.7,2.71,2.11,3.96c1.43,1.28,2.88,2.26,4.37,2.94
		c1.51,0.68,3.54,1.54,6.11,2.53c2.58,0.98,4.37,1.68,5.35,2.05c0.98,0.38,3.41,1.62,7.31,3.75c3.88,2.13,5.83,6.18,5.83,12.16
		c0,14.31-9.16,21.47-27.46,21.47c-4.26,0-8.54-0.45-12.87-1.34c-4.32-0.89-7.52-1.94-9.54-3.15l2.81-13.29
		c8.1,2.83,14.76,4.24,19.96,4.24c6.58,0,9.84-2,9.8-6.05c0-1.36-0.59-2.64-1.79-3.83c-1.17-1.19-2.39-2.11-3.6-2.75
		c-1.23-0.64-3.34-1.6-6.35-2.83c-2.98-1.26-5.22-2.26-6.71-3c-1.47-0.75-3.92-2.28-7.33-4.58c-3.41-2.32-5.11-6.18-5.11-11.59
		c0-6.81,2.43-11.95,7.31-15.4c4.86-3.45,11.29-5.18,19.28-5.18c7.99,0,14.66,1.94,20.02,5.86l-2.56,13.67
		c-0.96-1.04-3.43-2.19-7.41-3.41C43.99,84.09,40.29,83.47,36.88,83.47L36.88,83.47z M76.52,115.19V83.11H65.03V70.82h11.84V55.91
		l18.04-1.57v16.36h18.66l-1,12.42H94.79v33.76c0,2.45,0.4,4.22,1.19,5.26c0.79,1.06,2.43,1.6,4.92,1.6c2.51,0,5.28-0.36,8.31-1.13
		l1.94,12.67c-4.15,1.79-8.33,2.69-12.48,2.69c-4.15,0-7.31-0.26-9.46-0.79c-2.13-0.51-3.92-1.11-5.33-1.81
		c-1.43-0.68-2.62-1.68-3.6-2.98c-0.98-1.32-1.85-2.79-2.62-4.43C76.9,126.3,76.52,122.04,76.52,115.19L76.52,115.19z M152.64,82.98
		c-10.31,0-15.46,7.54-15.46,22.6c0,5.28,1.15,9.71,3.45,13.29c2.32,3.58,5.49,5.37,9.52,5.37c4.05,0,7.43-0.94,10.18-2.81
		l-0.13-36.76C157.99,83.53,155.48,82.98,152.64,82.98L152.64,82.98z M155.13,69.43c7.33,0,15.04,1.7,23.09,5.13v46.12
		c0,2.36,1.41,3.56,4.2,3.56c1.62,0,3.15-0.43,4.62-1.26l0.75,11.61c-4.71,2.11-9.22,3.2-13.55,3.24
		c-6.62-0.04-10.86-2.26-12.74-6.67c-3.9,4.32-9.05,6.5-15.46,6.54c-9.29,0-16.12-3.13-20.51-9.41c-4.39-6.28-6.58-14.19-6.58-23.71
		c0-9.54,2.6-17.76,7.8-24.71C131.96,72.9,141.42,69.43,155.13,69.43L155.13,69.43z M213.05,136.27H195.2V70.69h15.55l0.68,6.18
		c5.62-4.88,12.2-7.31,19.79-7.31c2.28,0,4.32,0.17,6.11,0.51l-1.74,14.59c-1.88-0.25-4.18-0.38-6.92-0.42
		c-7.41,0.04-12.61,1.06-15.61,3.11V136.27L213.05,136.27z M251.37,115.19V83.11h-11.48V70.82h11.84V55.91l18.04-1.57v16.36h18.66
		l-1,12.42h-17.79v33.76c0,2.45,0.4,4.22,1.19,5.26c0.79,1.06,2.43,1.6,4.92,1.6c2.51,0,5.28-0.36,8.31-1.13l1.94,12.67
		c-4.15,1.79-8.33,2.69-12.48,2.69c-4.15,0-7.31-0.26-9.46-0.79c-2.13-0.51-3.92-1.11-5.33-1.81c-1.43-0.68-2.62-1.68-3.6-2.98
		c-0.98-1.32-1.85-2.79-2.62-4.43C251.75,126.3,251.37,122.04,251.37,115.19L251.37,115.19z M313.97,70.69v40.94
		c0,8.18,3.64,12.27,10.97,12.23c3.75,0,7.33-0.9,10.73-2.69V70.69h17.91v49.99c0,2.28,1.15,3.43,3.43,3.43
		c1.62,0,3.09-0.38,4.37-1.13l0.75,11.61c-4.69,2.11-8.86,3.2-12.48,3.24c-6.65,0-10.91-2.22-12.78-6.67
		c-5.97,4.32-12.23,6.47-18.85,6.47c-6.62,0-11.93-1.7-15.95-5.13c-4.01-3.43-6.01-8.92-6.01-16.44V70.69H313.97L313.97,70.69z
		 M369.43,163.47V74.93c12.03-3.58,21.96-5.37,29.78-5.37c21.13,0,31.7,11.03,31.7,33.08c0,9.86-2.28,18.21-6.86,25.05
		c-4.58,6.84-12.78,10.27-24.58,10.27c-2.92,0-6.99-0.47-12.18-1.43v26.94H369.43L369.43,163.47z M412.76,102.51
		c0-12.69-5.09-19.04-15.23-19.04c-3.66,0.04-7.07,0.49-10.25,1.32v37.45c3.17,0.96,6.2,1.4,9.12,1.36c5.45,0,9.54-1.85,12.27-5.54
		C411.39,114.36,412.76,109.18,412.76,102.51z"/>
	<path class="st1" d="M22,158.95V161h-8.11v-11.76h7.94v2.04H16.5v2.64h5.03v1.97H16.5v3.06H22L22,158.95z M27.7,161.23
		c-1.31,0-2.4-0.39-3.26-1.17c-0.86-0.78-1.29-1.95-1.29-3.52c0-1.56,0.41-2.74,1.24-3.53c0.83-0.79,1.84-1.18,3.04-1.18
		c1.21,0,2.16,0.18,2.86,0.54l-0.32,1.83c-0.63-0.31-1.29-0.46-2-0.46c-1.58,0-2.38,0.94-2.38,2.8c0,1.06,0.22,1.79,0.65,2.22
		c0.44,0.43,1.04,0.64,1.79,0.64c0.53,0,1.24-0.1,2.15-0.3l0.14,1.74C29.32,161.1,28.45,161.23,27.7,161.23L27.7,161.23z
		 M35.21,161.23c-2.73,0-4.1-1.57-4.1-4.71c0-3.14,1.4-4.71,4.2-4.71c1.38,0,2.42,0.36,3.12,1.09c0.71,0.73,1.06,1.93,1.06,3.61
		C39.5,159.66,38.07,161.23,35.21,161.23L35.21,161.23z M36.61,154.28c-0.3-0.38-0.73-0.58-1.3-0.58c-0.57,0-1.01,0.19-1.32,0.58
		c-0.31,0.38-0.46,1.12-0.46,2.19c0,1.08,0.16,1.82,0.47,2.24c0.31,0.42,0.75,0.63,1.3,0.63c0.55,0,0.98-0.21,1.29-0.63
		c0.3-0.41,0.46-1.16,0.46-2.24C37.05,155.4,36.91,154.67,36.61,154.28L36.61,154.28z M44.17,153.72c-0.77,0-1.16,0.26-1.16,0.78
		c0,0.19,0.1,0.37,0.29,0.55c0.2,0.17,0.39,0.31,0.6,0.4c0.21,0.09,0.49,0.21,0.84,0.35c0.36,0.14,0.6,0.23,0.74,0.28
		c0.13,0.05,0.47,0.22,1,0.52c0.54,0.29,0.8,0.85,0.8,1.68c0,1.97-1.26,2.96-3.78,2.96c-0.59,0-1.18-0.06-1.77-0.18
		c-0.59-0.12-1.03-0.27-1.31-0.43l0.39-1.83c1.11,0.39,2.03,0.58,2.75,0.58c0.91,0,1.35-0.28,1.35-0.83c0-0.19-0.08-0.37-0.25-0.53
		c-0.16-0.17-0.33-0.29-0.5-0.38c-0.17-0.09-0.46-0.22-0.87-0.39c-0.41-0.17-0.72-0.31-0.92-0.41c-0.2-0.1-0.54-0.31-1.01-0.63
		c-0.47-0.32-0.7-0.85-0.7-1.59c0-0.94,0.33-1.65,1-2.12c0.67-0.48,1.55-0.71,2.66-0.71c1.1,0,2.02,0.27,2.76,0.81l-0.35,1.88
		c-0.13-0.15-0.47-0.3-1.02-0.47C45.15,153.81,44.65,153.72,44.17,153.72L44.17,153.72z M51.88,153.72c-0.77,0-1.16,0.26-1.16,0.78
		c0,0.19,0.1,0.37,0.29,0.55c0.19,0.17,0.39,0.31,0.6,0.4c0.21,0.09,0.49,0.21,0.84,0.35c0.36,0.14,0.6,0.23,0.74,0.28
		c0.13,0.05,0.47,0.22,1,0.52c0.54,0.29,0.8,0.85,0.8,1.68c0,1.97-1.26,2.96-3.78,2.96c-0.59,0-1.17-0.06-1.77-0.18
		c-0.59-0.12-1.03-0.27-1.31-0.43l0.39-1.83c1.11,0.39,2.03,0.58,2.75,0.58c0.91,0,1.35-0.28,1.35-0.83c0-0.19-0.08-0.37-0.25-0.53
		c-0.16-0.17-0.33-0.29-0.5-0.38c-0.17-0.09-0.46-0.22-0.87-0.39c-0.41-0.17-0.72-0.31-0.92-0.41c-0.2-0.1-0.54-0.31-1.01-0.63
		c-0.47-0.32-0.7-0.85-0.7-1.59c0-0.94,0.33-1.65,1-2.12c0.67-0.48,1.55-0.71,2.66-0.71c1.1,0,2.02,0.27,2.76,0.81l-0.35,1.88
		c-0.13-0.15-0.47-0.3-1.02-0.47C52.86,153.81,52.35,153.72,51.88,153.72L51.88,153.72z M58.87,151.96V161h-2.53v-9.03H58.87
		L58.87,151.96z M56.33,150.58v-2.61h2.53v2.61H56.33L56.33,150.58z M63.86,153.72c-0.77,0-1.16,0.26-1.16,0.78
		c0,0.19,0.1,0.37,0.29,0.55c0.19,0.17,0.39,0.31,0.6,0.4c0.21,0.09,0.49,0.21,0.84,0.35c0.36,0.14,0.6,0.23,0.74,0.28
		c0.13,0.05,0.47,0.22,1,0.52c0.54,0.29,0.8,0.85,0.8,1.68c0,1.97-1.26,2.96-3.78,2.96c-0.59,0-1.17-0.06-1.77-0.18
		c-0.59-0.12-1.03-0.27-1.31-0.43l0.39-1.83c1.11,0.39,2.03,0.58,2.75,0.58c0.91,0,1.35-0.28,1.35-0.83c0-0.19-0.08-0.37-0.25-0.53
		c-0.16-0.17-0.33-0.29-0.5-0.38c-0.17-0.09-0.46-0.22-0.87-0.39c-0.41-0.17-0.72-0.31-0.92-0.41c-0.2-0.1-0.54-0.31-1.01-0.63
		c-0.47-0.32-0.7-0.85-0.7-1.59c0-0.94,0.33-1.65,1-2.12c0.67-0.48,1.55-0.71,2.66-0.71c1.1,0,2.02,0.27,2.76,0.81l-0.35,1.88
		c-0.13-0.15-0.47-0.3-1.02-0.47C64.84,153.81,64.33,153.72,63.86,153.72L63.86,153.72z M69.32,158.09v-4.42h-1.58v-1.69h1.63v-2.05
		l2.48-0.22v2.25h2.57l-0.14,1.71h-2.45v4.65c0,0.34,0.06,0.58,0.17,0.73c0.11,0.15,0.33,0.22,0.68,0.22c0.35,0,0.73-0.05,1.15-0.16
		l0.27,1.74c-0.57,0.25-1.15,0.37-1.72,0.37c-0.57,0-1.01-0.03-1.3-0.11c-0.29-0.07-0.54-0.15-0.73-0.25
		c-0.2-0.09-0.36-0.23-0.5-0.41c-0.14-0.18-0.25-0.38-0.36-0.61C69.37,159.62,69.32,159.04,69.32,158.09L69.32,158.09z
		 M79.97,151.84c0.91,0,1.65,0.22,2.24,0.67c0.58,0.45,0.88,1.1,0.88,1.95c0,0.57-0.13,1.08-0.39,1.5
		c-0.26,0.43-0.69,0.82-1.31,1.17c-0.61,0.35-1.42,0.52-2.42,0.52c-0.46,0-0.88-0.05-1.26-0.16c0.01,0.61,0.27,1.05,0.78,1.33
		c0.51,0.28,1.16,0.42,1.94,0.42c0.78,0,1.52-0.13,2.2-0.39l0.25,1.78c-0.88,0.35-2.05,0.53-3.49,0.53c-1.44,0-2.53-0.41-3.26-1.23
		c-0.73-0.82-1.09-1.89-1.09-3.2c0-1.31,0.38-2.46,1.14-3.43C76.95,152.33,78.21,151.84,79.97,151.84L79.97,151.84z M80.63,154.5
		c0-0.22-0.09-0.42-0.27-0.6c-0.18-0.18-0.39-0.26-0.65-0.26c-0.67,0-1.19,0.22-1.56,0.66c-0.37,0.44-0.57,1.05-0.61,1.82
		c0.26,0.08,0.53,0.12,0.81,0.12c0.58,0,1.11-0.16,1.57-0.47C80.4,155.46,80.63,155.04,80.63,154.5L80.63,154.5z M84.53,161v-8.11
		c1.57-0.74,3.02-1.11,4.32-1.11c1.3,0,2.23,0.24,2.78,0.71c1.09-0.47,2.19-0.71,3.29-0.71c2.15,0,3.22,1.05,3.22,3.15V161H95.7
		v-5.81c0-1.02-0.48-1.53-1.44-1.53c-0.61,0-1.2,0.14-1.78,0.42c0.05,0.35,0.07,0.63,0.07,0.84V161h-2.41v-5.81
		c0-0.58-0.13-0.97-0.4-1.2c-0.27-0.22-0.67-0.33-1.2-0.33c-0.53,0-1.05,0.13-1.56,0.39V161H84.53L84.53,161z M104.25,153.66
		c-1.42,0-2.13,1.04-2.13,3.11c0,0.73,0.16,1.34,0.47,1.83c0.32,0.49,0.76,0.74,1.31,0.74c0.56,0,1.02-0.13,1.4-0.39l-0.02-5.06
		C104.99,153.73,104.64,153.66,104.25,153.66L104.25,153.66z M104.6,151.79c1.01,0,2.07,0.23,3.18,0.71v6.35
		c0,0.33,0.19,0.49,0.58,0.49c0.22,0,0.43-0.06,0.64-0.18l0.1,1.6c-0.65,0.29-1.27,0.44-1.87,0.45c-0.91-0.01-1.5-0.31-1.75-0.92
		c-0.54,0.59-1.25,0.89-2.13,0.9c-1.28,0-2.22-0.43-2.82-1.3c-0.6-0.86-0.91-1.95-0.91-3.26c0-1.32,0.36-2.45,1.07-3.4
		C101.41,152.27,102.71,151.79,104.6,151.79L104.6,151.79z M118.69,149.03c1.29,0,2.48,0.23,3.56,0.69l-0.37,2.08
		c-1.06-0.48-1.98-0.72-2.75-0.72c-1,0-1.8,0.32-2.42,0.95c-0.62,0.63-0.92,1.64-0.92,3.01c0,2.74,1.02,4.11,3.06,4.11
		c0.55,0,0.99-0.02,1.34-0.05v-3.88h2.36v5.41c-1.11,0.36-2.38,0.54-3.82,0.54c-3.73,0.01-5.6-2.02-5.61-6.09
		c0-1.05,0.15-1.98,0.45-2.78c0.3-0.8,0.85-1.54,1.64-2.24C116,149.37,117.16,149.03,118.69,149.03L118.69,149.03z M128,161.23
		c-2.73,0-4.1-1.57-4.1-4.71c0-3.14,1.4-4.71,4.2-4.71c1.38,0,2.42,0.36,3.12,1.09c0.71,0.73,1.06,1.93,1.06,3.61
		C132.29,159.66,130.86,161.23,128,161.23L128,161.23z M129.4,154.28c-0.3-0.38-0.73-0.58-1.3-0.58c-0.57,0-1.01,0.19-1.32,0.58
		c-0.31,0.38-0.46,1.12-0.46,2.19c0,1.08,0.16,1.82,0.47,2.24c0.31,0.42,0.75,0.63,1.3,0.63c0.55,0,0.98-0.21,1.29-0.63
		c0.3-0.41,0.46-1.16,0.46-2.24C129.85,155.4,129.7,154.67,129.4,154.28L129.4,154.28z M136.25,151.96V161h-2.54v-9.03H136.25
		L136.25,151.96z M133.71,150.58v-2.61h2.54v2.61H133.71L133.71,150.58z M142.31,153.66c-1.42,0-2.13,1.04-2.13,3.11
		c0,0.73,0.16,1.34,0.47,1.83c0.32,0.49,0.76,0.74,1.31,0.74c0.56,0,1.02-0.13,1.4-0.39l-0.02-5.06
		C143.05,153.73,142.7,153.66,142.31,153.66L142.31,153.66z M142.66,151.79c1.01,0,2.07,0.23,3.18,0.71v6.35
		c0,0.33,0.19,0.49,0.58,0.49c0.22,0,0.43-0.06,0.64-0.18l0.1,1.6c-0.65,0.29-1.27,0.44-1.87,0.45c-0.91-0.01-1.5-0.31-1.75-0.92
		c-0.54,0.59-1.25,0.89-2.13,0.9c-1.28,0-2.22-0.43-2.82-1.3c-0.6-0.86-0.91-1.95-0.91-3.26c0-1.32,0.36-2.45,1.07-3.4
		C139.47,152.27,140.77,151.79,142.66,151.79L142.66,151.79z M148.17,161v-8.18c1.56-0.69,3.1-1.04,4.63-1.04
		c0.98,0,1.81,0.2,2.5,0.61c0.69,0.41,1.03,1.25,1.03,2.53V161h-2.45v-5.86c0-1.02-0.49-1.53-1.48-1.53c-0.75,0-1.35,0.13-1.8,0.39
		v7H148.17L148.17,161z M161.9,161.23c-2.73,0-4.1-1.57-4.1-4.71c0-3.14,1.4-4.71,4.2-4.71c1.38,0,2.42,0.36,3.12,1.09
		c0.71,0.73,1.06,1.93,1.06,3.61C166.19,159.66,164.76,161.23,161.9,161.23L161.9,161.23z M163.3,154.28
		c-0.3-0.38-0.73-0.58-1.3-0.58c-0.57,0-1.01,0.19-1.32,0.58c-0.31,0.38-0.46,1.12-0.46,2.19c0,1.08,0.16,1.82,0.47,2.24
		c0.31,0.42,0.75,0.63,1.3,0.63c0.55,0,0.98-0.21,1.29-0.63c0.3-0.41,0.46-1.16,0.46-2.24C163.75,155.4,163.6,154.67,163.3,154.28
		L163.3,154.28z M178.96,148.66v12.02c-1.21,0.34-2.55,0.51-4.01,0.51c-2.88,0-4.31-1.52-4.3-4.54c0-1.26,0.22-2.24,0.66-2.94
		c0.44-0.69,0.95-1.18,1.52-1.45c0.56-0.28,1.21-0.41,1.93-0.41s1.31,0.08,1.74,0.25v-3.44H178.96L178.96,148.66z M175.24,153.67
		c-0.68,0-1.2,0.28-1.56,0.84c-0.37,0.56-0.55,1.28-0.55,2.15c0,1.79,0.72,2.69,2.16,2.7c0.4-0.01,0.8-0.06,1.2-0.18v-5.39
		C176.15,153.72,175.73,153.67,175.24,153.67L175.24,153.67z M185.33,151.84c0.91,0,1.65,0.22,2.24,0.67
		c0.58,0.45,0.88,1.1,0.88,1.95c0,0.57-0.13,1.08-0.39,1.5c-0.26,0.43-0.69,0.82-1.31,1.17c-0.61,0.35-1.42,0.52-2.42,0.52
		c-0.46,0-0.88-0.05-1.26-0.16c0.01,0.61,0.27,1.05,0.78,1.33c0.51,0.28,1.15,0.42,1.94,0.42c0.78,0,1.52-0.13,2.2-0.39l0.25,1.78
		c-0.88,0.35-2.05,0.53-3.49,0.53c-1.44,0-2.53-0.41-3.26-1.23c-0.73-0.82-1.09-1.89-1.09-3.2c0-1.31,0.38-2.46,1.14-3.43
		C182.31,152.33,183.57,151.84,185.33,151.84L185.33,151.84z M185.99,154.5c0-0.22-0.09-0.42-0.27-0.6
		c-0.18-0.18-0.39-0.26-0.65-0.26c-0.67,0-1.19,0.22-1.56,0.66c-0.37,0.44-0.57,1.05-0.61,1.82c0.26,0.08,0.53,0.12,0.81,0.12
		c0.58,0,1.11-0.16,1.57-0.47C185.76,155.46,185.99,155.04,185.99,154.5L185.99,154.5z M195.95,149.24V161h-2.61v-11.76H195.95
		L195.95,149.24z M197.94,161v-8.18c1.56-0.69,3.1-1.04,4.63-1.04c0.98,0,1.81,0.2,2.5,0.61c0.69,0.41,1.03,1.25,1.03,2.53V161
		h-2.45v-5.86c0-1.02-0.49-1.53-1.48-1.53c-0.75,0-1.35,0.13-1.8,0.39v7H197.94L197.94,161z M211.67,161.23
		c-2.73,0-4.1-1.57-4.1-4.71c0-3.14,1.4-4.71,4.2-4.71c1.38,0,2.42,0.36,3.12,1.09c0.71,0.73,1.06,1.93,1.06,3.61
		C215.96,159.66,214.53,161.23,211.67,161.23L211.67,161.23z M213.07,154.28c-0.3-0.38-0.73-0.58-1.3-0.58
		c-0.57,0-1.01,0.19-1.32,0.58c-0.31,0.38-0.46,1.12-0.46,2.19c0,1.08,0.16,1.82,0.47,2.24c0.31,0.42,0.75,0.63,1.3,0.63
		c0.55,0,0.98-0.21,1.29-0.63c0.3-0.41,0.46-1.16,0.46-2.24C213.51,155.4,213.37,154.67,213.07,154.28L213.07,154.28z
		 M217.17,158.09v-6.13h2.5v5.74c0,0.55,0.1,0.96,0.32,1.22c0.21,0.26,0.57,0.39,1.09,0.39c1.17,0,1.74-0.98,1.74-2.94
		c0-1.43-0.23-2.91-0.7-4.42h2.44c0.47,1.49,0.7,2.93,0.7,4.31c0,1.38-0.34,2.55-1.03,3.5c-0.69,0.95-1.84,1.43-3.46,1.43
		c-1.22,0-2.13-0.26-2.72-0.77C217.46,159.93,217.17,159.14,217.17,158.09L217.17,158.09z M231.19,153.66
		c-1.42,0-2.13,1.04-2.13,3.11c0,0.73,0.16,1.34,0.47,1.83c0.32,0.49,0.76,0.74,1.31,0.74c0.56,0,1.02-0.13,1.4-0.39l-0.02-5.06
		C231.93,153.73,231.58,153.66,231.19,153.66L231.19,153.66z M231.53,151.79c1.01,0,2.07,0.23,3.18,0.71v6.35
		c0,0.33,0.19,0.49,0.58,0.49c0.22,0,0.43-0.06,0.64-0.18l0.1,1.6c-0.65,0.29-1.27,0.44-1.87,0.45c-0.91-0.01-1.5-0.31-1.75-0.92
		c-0.54,0.59-1.25,0.89-2.13,0.9c-1.28,0-2.22-0.43-2.82-1.3c-0.6-0.86-0.91-1.95-0.91-3.26c0-1.32,0.36-2.45,1.07-3.4
		C228.34,152.27,229.64,151.79,231.53,151.79L231.53,151.79z M241.24,161.23c-1.31,0-2.4-0.39-3.26-1.17
		c-0.86-0.78-1.29-1.95-1.29-3.52c0-1.56,0.41-2.74,1.24-3.53c0.83-0.79,1.84-1.18,3.04-1.18c1.21,0,2.16,0.18,2.86,0.54l-0.32,1.83
		c-0.63-0.31-1.29-0.46-2-0.46c-1.58,0-2.38,0.94-2.38,2.8c0,1.06,0.22,1.79,0.65,2.22c0.44,0.43,1.04,0.64,1.79,0.64
		c0.53,0,1.24-0.1,2.15-0.3l0.14,1.74C242.86,161.1,241.99,161.23,241.24,161.23L241.24,161.23z M242.21,163.33
		c0,1.14-0.75,2.09-2.26,2.85l-0.89-1.14c0.68-0.5,1.02-1.04,1.02-1.6c0-0.33-0.12-0.81-0.37-1.44h2.18
		C242.1,162.46,242.21,162.9,242.21,163.33L242.21,163.33z M249.42,153.66c-1.42,0-2.13,1.04-2.13,3.11c0,0.73,0.16,1.34,0.47,1.83
		c0.32,0.49,0.76,0.74,1.31,0.74c0.56,0,1.02-0.13,1.4-0.39l-0.02-5.06C250.15,153.73,249.81,153.66,249.42,153.66L249.42,153.66z
		 M249.76,151.79c1.01,0,2.07,0.23,3.18,0.71v6.35c0,0.33,0.19,0.49,0.58,0.49c0.22,0,0.43-0.06,0.64-0.18l0.1,1.6
		c-0.65,0.29-1.27,0.44-1.87,0.45c-0.91-0.01-1.5-0.31-1.75-0.92c-0.54,0.59-1.25,0.89-2.13,0.9c-1.28,0-2.22-0.43-2.82-1.3
		c-0.6-0.86-0.91-1.95-0.91-3.26c0-1.32,0.36-2.45,1.07-3.4C246.57,152.27,247.87,151.79,249.76,151.79L249.76,151.79z
		 M249.35,148.56c0.53,0.25,0.92,0.38,1.18,0.38c0.26,0,0.57-0.21,0.91-0.62l0.86,0.95c-0.21,0.35-0.5,0.66-0.86,0.93
		c-0.36,0.27-0.7,0.4-1.02,0.4c-0.32,0-0.74-0.13-1.26-0.38c-0.52-0.25-0.9-0.38-1.17-0.38c-0.26,0-0.57,0.2-0.91,0.61l-0.86-0.95
		c0.21-0.35,0.49-0.66,0.84-0.92c0.35-0.27,0.68-0.4,1-0.4C248.4,148.18,248.82,148.31,249.35,148.56L249.35,148.56z M259.03,161.23
		c-2.73,0-4.1-1.57-4.1-4.71c0-3.14,1.4-4.71,4.2-4.71c1.38,0,2.42,0.36,3.12,1.09c0.71,0.73,1.06,1.93,1.06,3.61
		C263.32,159.66,261.89,161.23,259.03,161.23L259.03,161.23z M260.43,154.28c-0.3-0.38-0.73-0.58-1.3-0.58
		c-0.57,0-1.01,0.19-1.32,0.58c-0.31,0.38-0.46,1.12-0.46,2.19c0,1.08,0.16,1.82,0.47,2.24c0.31,0.42,0.75,0.63,1.3,0.63
		c0.55,0,0.99-0.21,1.29-0.63c0.3-0.41,0.46-1.16,0.46-2.24C260.87,155.4,260.72,154.67,260.43,154.28L260.43,154.28z
		 M266.97,151.26v-2.02h9.36v2.02h-3.41V161h-2.6v-9.73H266.97L266.97,151.26z M280.72,151.84c-1.76,0-3.02,0.48-3.78,1.46
		c-0.76,0.97-1.14,2.12-1.14,3.43c0,1.31,0.36,2.37,1.09,3.2c0.73,0.82,1.81,1.23,3.26,1.23c1.44,0,2.61-0.18,3.49-0.53l-0.25-1.78
		c-0.68,0.26-1.42,0.39-2.2,0.39c-0.79,0-1.43-0.14-1.94-0.42c-0.51-0.28-0.77-0.72-0.78-1.33c0.38,0.11,0.8,0.16,1.26,0.16
		c1,0,1.81-0.17,2.42-0.52c0.61-0.35,1.05-0.73,1.31-1.17c0.26-0.43,0.39-0.93,0.39-1.5c0-0.85-0.29-1.5-0.88-1.95
		C282.37,152.07,281.63,151.84,280.72,151.84L280.72,151.84z M281.38,154.5c0,0.54-0.23,0.96-0.7,1.28
		c-0.47,0.31-0.99,0.47-1.57,0.47c-0.28,0-0.55-0.04-0.81-0.12c0.03-0.77,0.24-1.38,0.61-1.82c0.37-0.44,0.89-0.66,1.56-0.66
		c0.26,0,0.48,0.09,0.65,0.26C281.3,154.08,281.38,154.28,281.38,154.5L281.38,154.5z M289.47,161.23c-1.31,0-2.4-0.39-3.26-1.17
		c-0.86-0.78-1.29-1.95-1.29-3.52c0-1.56,0.41-2.74,1.24-3.53c0.83-0.79,1.84-1.18,3.04-1.18c1.21,0,2.16,0.18,2.86,0.54l-0.32,1.83
		c-0.63-0.31-1.29-0.46-2-0.46c-1.58,0-2.38,0.94-2.38,2.8c0,1.06,0.22,1.79,0.65,2.22c0.44,0.43,1.04,0.64,1.79,0.64
		c0.53,0,1.24-0.1,2.15-0.3l0.14,1.74C291.1,161.1,290.22,161.23,289.47,161.23L289.47,161.23z M293.48,161v-8.18
		c1.56-0.69,3.1-1.04,4.63-1.04c0.98,0,1.81,0.2,2.51,0.61c0.69,0.41,1.03,1.25,1.03,2.53V161h-2.45v-5.86
		c0-1.02-0.49-1.53-1.48-1.53c-0.75,0-1.35,0.13-1.8,0.39v7H293.48L293.48,161z M307.21,161.23c-2.73,0-4.1-1.57-4.1-4.71
		c0-3.14,1.4-4.71,4.2-4.71c1.38,0,2.42,0.36,3.12,1.09c0.71,0.73,1.06,1.93,1.06,3.61C311.5,159.66,310.07,161.23,307.21,161.23
		L307.21,161.23z M308.61,154.28c-0.3-0.38-0.73-0.58-1.3-0.58c-0.57,0-1.01,0.19-1.32,0.58c-0.31,0.38-0.46,1.12-0.46,2.19
		c0,1.08,0.16,1.82,0.47,2.24c0.31,0.42,0.75,0.63,1.3,0.63c0.55,0,0.98-0.21,1.29-0.63c0.3-0.41,0.46-1.16,0.46-2.24
		C309.05,155.4,308.91,154.67,308.61,154.28L308.61,154.28z M317.64,160.84c-0.6,0.26-1.18,0.39-1.74,0.39
		c-0.56,0-1.03-0.06-1.4-0.19c-0.37-0.13-0.65-0.28-0.83-0.45c-0.19-0.17-0.33-0.41-0.43-0.71c-0.1-0.3-0.16-0.57-0.18-0.8
		c-0.02-0.23-0.03-0.53-0.03-0.91v-9.48h2.54v9.63c0,0.34,0.05,0.58,0.14,0.72c0.1,0.14,0.32,0.21,0.66,0.21
		c0.34,0,0.68-0.04,1.01-0.12L317.64,160.84L317.64,160.84z M322.25,161.23c-2.73,0-4.1-1.57-4.1-4.71c0-3.14,1.4-4.71,4.2-4.71
		c1.38,0,2.42,0.36,3.12,1.09c0.71,0.73,1.06,1.93,1.06,3.61C326.54,159.66,325.11,161.23,322.25,161.23L322.25,161.23z
		 M323.65,154.28c-0.3-0.38-0.73-0.58-1.3-0.58c-0.57,0-1.01,0.19-1.32,0.58c-0.31,0.38-0.46,1.12-0.46,2.19
		c0,1.08,0.16,1.82,0.47,2.24c0.31,0.42,0.75,0.63,1.3,0.63c0.55,0,0.98-0.21,1.29-0.63c0.3-0.41,0.46-1.16,0.46-2.24
		C324.09,155.4,323.94,154.67,323.65,154.28L323.65,154.28z M324.45,149.33l-3.59,1.34l-0.6-1.37l3.32-1.92L324.45,149.33
		L324.45,149.33z M330.18,156.59c0,1.78,0.69,2.67,2.06,2.67c0.41,0,0.81-0.06,1.21-0.17v-5.27c-0.32-0.11-0.7-0.17-1.14-0.17
		c-0.91,0-1.5,0.3-1.75,0.9C330.31,155.16,330.18,155.84,330.18,156.59L330.18,156.59z M335.92,161.01c0,0.78-0.12,1.46-0.36,2.04
		c-0.24,0.58-0.67,1.08-1.29,1.52c-0.62,0.44-1.52,0.66-2.69,0.66c-1.17,0-2.37-0.21-3.6-0.64l0.32-1.88
		c1.33,0.33,2.45,0.49,3.34,0.49c0.59,0,1.03-0.14,1.34-0.43c0.31-0.29,0.46-0.84,0.46-1.67v-0.28c-0.61,0.22-1.26,0.33-1.97,0.33
		c-1.23,0-2.16-0.43-2.8-1.29c-0.64-0.86-0.96-1.95-0.96-3.26c0-1.31,0.35-2.45,1.05-3.4c0.7-0.96,1.95-1.44,3.73-1.44
		c1.17,0,2.31,0.24,3.43,0.71V161.01L335.92,161.01z M340.22,151.96V161h-2.53v-9.03H340.22L340.22,151.96z M337.69,150.58v-2.61
		h2.53v2.61H337.69L337.69,150.58z M346.18,161.23c-1.31,0-2.4-0.39-3.26-1.17c-0.86-0.78-1.29-1.95-1.29-3.52
		c0-1.56,0.41-2.74,1.24-3.53c0.83-0.79,1.84-1.18,3.04-1.18c1.21,0,2.16,0.18,2.86,0.54l-0.32,1.83c-0.63-0.31-1.29-0.46-2-0.46
		c-1.58,0-2.38,0.94-2.38,2.8c0,1.06,0.22,1.79,0.65,2.22c0.44,0.43,1.04,0.64,1.79,0.64c0.53,0,1.24-0.1,2.15-0.3l0.14,1.74
		C347.81,161.1,346.94,161.23,346.18,161.23L346.18,161.23z M354.36,153.66c-1.42,0-2.13,1.04-2.13,3.11c0,0.73,0.16,1.34,0.47,1.83
		c0.32,0.49,0.76,0.74,1.31,0.74c0.56,0,1.02-0.13,1.4-0.39l-0.02-5.06C355.1,153.73,354.75,153.66,354.36,153.66L354.36,153.66z
		 M354.71,151.79c1.01,0,2.07,0.23,3.18,0.71v6.35c0,0.33,0.19,0.49,0.58,0.49c0.22,0,0.43-0.06,0.64-0.18l0.1,1.6
		c-0.65,0.29-1.27,0.44-1.87,0.45c-0.91-0.01-1.5-0.31-1.75-0.92c-0.54,0.59-1.25,0.89-2.13,0.9c-1.28,0-2.22-0.43-2.82-1.3
		c-0.6-0.86-0.91-1.95-0.91-3.26c0-1.32,0.36-2.45,1.07-3.4C351.52,152.27,352.82,151.79,354.71,151.79z"/>
	<g>
		<path class="st2" d="M487.17,73.1c5.8,0,11.7,0.98,17.01,2.56l-2.26,10.52c-4.42-1.47-9.04-2.26-13.37-2.26
			c-10.71,0-19.66,5.01-19.66,22.71c0,17.4,7.47,23,17.1,23c2.16,0,4.62,0,7.47-0.29V107.7h13.17v30.18
			c-7.18,2.36-14.45,3.05-21.33,3.05c-16.61,0-31.26-7.18-31.36-34.01C454.63,81.06,470.65,73.1,487.17,73.1z"/>
		<path class="st2" d="M571.99,107.11c0,17.2-4.72,34.01-28.8,34.01c-23.89,0-28.41-16.71-28.41-34.01c0-17.3,4.92-34.01,28.7-34.01
			C567.47,73.1,571.99,89.81,571.99,107.11z M557.94,107.11c0-12.39-1.77-22.51-14.55-22.51c-12.68,0-14.55,10.13-14.55,22.51
			c0,12.29,1.87,22.02,14.55,22.02C556.07,129.13,557.94,119.39,557.94,107.11z"/>
	</g>
</g>
</svg>
