<svg xmlns="http://www.w3.org/2000/svg" viewBox="0 0 687.28 774.73"><defs><style>.cls-1{isolation:isolate;}.cls-2{fill:none;}.cls-3{fill:#dfd53d;fill-rule:evenodd;}.cls-4{fill:#e3dafc;}.cls-5{fill:#e7e0fe;}.cls-6{fill:#fc9e5b;}.cls-7{fill:#235a2d;stroke:#235a2d;stroke-miterlimit:22.93;stroke-width:0.57px;}.cls-8{fill:#f898bf;}.cls-9{fill:#fff;}.cls-10{fill:#c1d08c;mix-blend-mode:overlay;}.cls-11{fill:#d786a7;}.cls-12{fill:#dafb69;}</style></defs><title>Logotipo_StartupGo</title><g class="cls-1"><g id="Camada_1" data-name="Camada 1"><rect class="cls-2" x="-127.5" y="0.6" width="1677" height="650"/><path class="cls-3" d="M622.61,420.84,114.1,127.25A20.51,20.51,0,0,0,83.34,145V732.19A20.5,20.5,0,0,0,114.1,750L622.61,456.36A20.5,20.5,0,0,0,622.61,420.84Z"/><path class="cls-4" d="M331.41,607.08a99.23,99.23,0,0,0-86.34-23.48,84.89,84.89,0,0,0-87.48-78.46,70.16,70.16,0,0,0-53.88-46.37A95,95,0,0,0,100.76,408a126.44,126.44,0,0,0-17.42-53.24v271a84.87,84.87,0,0,0,82.49,48.95A99.78,99.78,0,0,0,172,716l.65.13,169.41-97.8A100,100,0,0,0,331.41,607.08Z"/><polygon class="cls-4" points="357.02 522.45 206.86 387.39 321 307.16 420.93 397.05 357.02 522.45"/><path class="cls-5" d="M376,561.29a81.56,81.56,0,0,0-70.63-19.36,73.21,73.21,0,0,0-75.65-73.48,60.5,60.5,0,0,0-46.47-40,81.55,81.55,0,1,0-71.15,63.79,60.48,60.48,0,0,0,47,54.74,73.23,73.23,0,0,0,81.06,67.48A81.63,81.63,0,1,0,376,561.29Z"/><path class="cls-4" d="M360.3,481.32a46.42,46.42,0,0,0-40.23-11A41.72,41.72,0,0,0,277,428.42a34.33,34.33,0,0,0-26.47-22.75A46.47,46.47,0,1,0,210,442a34.4,34.4,0,0,0,26.73,31.18,41.72,41.72,0,0,0,46.18,38.45,46.5,46.5,0,1,0,77.41-30.28Z"/><polygon class="cls-6" points="332.94 378.55 367.91 352.47 357.82 343.39 332.94 378.55"/><polygon class="cls-6" points="299.37 363.26 346.61 333.31 335.4 323.22 299.37 363.26"/><polygon class="cls-6" points="315.41 374.78 357.82 343.39 346.61 333.31 315.41 374.78"/><polygon class="cls-6" points="262.17 356.5 335.4 323.22 321.88 311.07 262.17 356.5"/><polygon class="cls-6" points="351.25 407.02 389.22 371.63 378.01 361.55 351.25 407.02"/><polygon class="cls-6" points="364.4 421.75 400.43 381.71 389.22 371.63 364.4 421.75"/><polygon class="cls-6" points="413.94 393.87 400.43 381.71 375.04 458.03 413.94 393.87"/><polygon class="cls-6" points="345.66 389.98 378.01 361.55 367.91 352.47 345.66 389.98"/><path class="cls-7" d="M245.8,225.48a265,265,0,0,1,155.54,84,405.51,405.51,0,0,0,33.19-114.62C365.6,186.58,299.79,199.08,245.8,225.48Z"/><path class="cls-7" d="M513.33,466.12a264.93,264.93,0,0,0-99.89-145.8A405.79,405.79,0,0,1,524,275.25C539.4,342.92,533.91,409.66,513.33,466.12Z"/><path class="cls-7" d="M459.71,381.6C495.77,358.42,534,325.83,569.8,286,665.75,179.39,665,22.31,665,22.31S508.69,38.12,412.74,144.74c-35.83,39.82-64.22,81.23-83.48,119.53Z"/><ellipse class="cls-8" cx="504.18" cy="201.04" rx="58.07" ry="58.08" transform="translate(183.34 638.84) rotate(-75.5)"/><path class="cls-7" d="M576.77,126.53c21.68,19.5,39.92,40.24,53.9,60.46C665.37,102.38,665,22.31,665,22.31S583.88,30.52,502.65,75C526.7,87,552.29,104.51,576.77,126.53Z"/><path class="cls-9" d="M450.85,178a58,58,0,0,0-4.68,26l115.38-12a57.79,57.79,0,0,0-9.92-24.45Z"/><path class="cls-9" d="M448.4,217.22a57.85,57.85,0,0,0,8,16.77l101.39-10.5a57.94,57.94,0,0,0,4.33-18.06Z"/><path class="cls-7" d="M447.86,424.38l11.72-42.9h0c2.95-4.15-23.41-33.36-59.26-65.61-36.12-32.49-68.17-55.74-71.59-51.94a1.26,1.26,0,0,0-.28.85L288,280.56Z"/><path class="cls-10" d="M355.48,288a1.34,1.34,0,0,1,.94-.39c19.25-38.09,47.49-79.22,83.09-118.79C510.29,90.17,613.89,60.94,663.39,51,665.05,33.14,665,22.31,665,22.31S508.69,38.12,412.74,144.74c-35.6,39.57-63.84,80.7-83.09,118.79a1.32,1.32,0,0,0-.94.39,1.26,1.26,0,0,0-.28.85L288,280.56l26.77,24.08,40.46-15.79A1.28,1.28,0,0,1,355.48,288Z"/><rect class="cls-11" x="615.44" y="190.91" width="10.34" height="5.82" rx="2.35" transform="translate(61.48 525.62) rotate(-48.03)"/><rect class="cls-11" x="603.2" y="173.51" width="10.34" height="5.82" rx="2.35" transform="translate(70.35 510.76) rotate(-48.03)"/><rect class="cls-11" x="588.83" y="156.49" width="10.34" height="5.82" rx="2.35" transform="translate(78.25 494.44) rotate(-48.03)"/><rect class="cls-11" x="571.13" y="138.64" width="10.34" height="5.82" rx="2.35" transform="translate(85.66 475.36) rotate(-48.03)"/><rect class="cls-11" x="550.48" y="120.17" width="10.34" height="5.82" rx="2.35" transform="translate(92.55 453.89) rotate(-48.03)"/><rect class="cls-11" x="530.95" y="104.65" width="10.34" height="5.82" rx="2.35" transform="translate(97.62 434.23) rotate(-48.03)"/><rect class="cls-11" x="512.28" y="91.93" width="10.34" height="5.82" rx="2.35" transform="translate(100.9 416.13) rotate(-48.03)"/><rect class="cls-11" x="493.92" y="81.6" width="10.34" height="5.82" rx="2.35" transform="translate(102.49 399.06) rotate(-48.03)"/><path class="cls-12" d="M463.49,246.25a60.82,60.82,0,1,1,85.92-4.53A60.89,60.89,0,0,1,463.49,246.25Zm77.69-86.34A55.32,55.32,0,1,0,545.32,238,55.41,55.41,0,0,0,541.18,159.91Z"/></g></g></svg>